# xmcd
#
# Track frame offsets:
#	150
#	16736
#	34920
#	52545
#	71287
#	92739
#	112139
#	131665
#	146445
#	169597
#	187653
#
# Disc length: 2597 seconds
# Revision: 0
# Processed by: cddbd v1.5.2PL0 Copyright (c) Steve Scherf et al.
# Submitted via: dBpowerAMP V12.0
#
DISCID=830a230b
DTITLE=Jay Clifford - Silver Tomb For The Kingfisher
DYEAR=2011
DGENRE=Alternative
TTITLE0=Standing on the Shoulders of Giants
TTITLE1=Clockwork
TTITLE2=Still So Far Away
TTITLE3=St. Augustine's Restless
TTITLE4=Vale of Tears
TTITLE5=V of Pelicans
TTITLE6=One of Us
TTITLE7=Strange Inversion of Reasoning
TTITLE8=Empyrean
TTITLE9=Echo Location
TTITLE10=6th and Central Park
EXTD=
EXTT0=
EXTT1=
EXTT2=
EXTT3=
EXTT4=
EXTT5=
EXTT6=
EXTT7=
EXTT8=
EXTT9=
EXTT10=
PLAYORDER=
